{"title":"OZ the Great and Powerful(2013)MPEG-4[DaScubaDude]","uid":15339898,"size":1421963844,"categoryP":"video","categoryS":"movies","magnet":"?xt=urn:btih:f0e7292227f9beba23ccdd98fa5b623b72f3ec71&amp;dn=OZ+the+Great+and+Powerful%282013%29MPEG-4%5BDaScubaDude%5D&amp;tr=udp%3A%2F%2Ftracker.leechers-paradise.org%3A6969&amp;tr=udp%3A%2F%2Fzer0day.ch%3A1337&amp;tr=udp%3A%2F%2Fopen.demonii.com%3A1337&amp;tr=udp%3A%2F%2Ftracker.coppersurfer.tk%3A6969&amp;tr=udp%3A%2F%2Fexodus.desync.com%3A6969","seeders":0,"leechers":1,"uploader":"dascuba","files":1,"time":1468823110,"description":"Oz the Great and Powerful (2013)\r\nPG | 2h 10min | Adventure, Family, Fantasy | 8 March 2013 (USA)\r\nA small-time magician is swept away to an enchanted land and is forced into a power struggle between three witches.\r\nDirector: Sam Raimi\r\nWriters: Mitchell Kapner (screenplay), David Lindsay-Abaire (screenplay) | \r\nStars: James Franco, Michelle Williams, Rachel Weisz |\r\n\r\nGeneral\r\nComplete name                            : OztheGreatOZ_THE_GREAT_AND_POWERFUL_Title56.mp4\r\nFormat                                   : MPEG-4\r\nFormat profile                           : Base Media\r\nCodec ID                                 : isom (isom/iso2/avc1/mp41)\r\nFile size                                : 1.32 GiB\r\nDuration                                 : 2h 10mn\r\nOverall bit rate                         : 1 454 Kbps\r\nMovie name                               : OZ_THE_GREAT_AND_POWERFUL\r\nGenre                                    : Fantasy\r\nWriting application                      : Lavf54.6.100\r\n\r\nVideo\r\nID                                       : 1\r\nFormat                                   : AVC\r\nFormat/Info                              : Advanced Video Codec\r\nFormat profile                           :   \r\nFormat settings, CABAC                   : No\r\nFormat settings, ReFrames                : 6 frames\r\nCodec ID                                 : avc1\r\nCodec ID/Info                            : Advanced Video Coding\r\nDuration                                 : 2h 10mn\r\nBit rate                                 : 1 199 Kbps\r\nWidth                                    : 720 pixels\r\nHeight                                   : 404 pixels\r\nDisplay aspect ratio                     : 16:9\r\nFrame rate mode                          : Constant\r\nFrame rate                               : 29.970 (30000/1001) fps\r\nColor space                              : YUV\r\nChroma subsampling                       : 4:2:0\r\nBit depth                                : 8 bits\r\nScan type                                : Progressive\r\nBits/(Pixel*Frame)                       : 0.138\r\nStream size                              : 1.09 GiB (82%)\r\n\r\nAudio\r\nID                                       : 2\r\nFormat                                   : AAC\r\nFormat/Info                              : Advanced Audio Codec\r\nFormat profile                           : LC\r\nCodec ID                                 : 40\r\nDuration                                 : 2h 10mn\r\nBit rate mode                            : Constant\r\nBit rate                                 : 248 Kbps\r\nChannel(s)                               : 2 channels\r\nChannel(s)_Original                      : 6 channels\r\nChannel positions                        : Front: L C R, Side: L R, LFE\r\nSampling rate                            : 44.1 KHz\r\nFrame rate                               : 43.066 fps (1024 spf)\r\nCompression mode                         : Lossy\r\nStream size                              : 231 MiB (17%)\r\nDefault                                  : Yes\r\nAlternate group                          : 1","torrent":{"xt":"urn:btih:f0e7292227f9beba23ccdd98fa5b623b72f3ec71","amp;dn":"OZ+the+Great+and+Powerful%282013%29MPEG-4%5BDaScubaDude%5D","amp;tr":["udp%3A%2F%2Ftracker.leechers-paradise.org%3A6969","udp%3A%2F%2Fzer0day.ch%3A1337","udp%3A%2F%2Fopen.demonii.com%3A1337","udp%3A%2F%2Ftracker.coppersurfer.tk%3A6969","udp%3A%2F%2Fexodus.desync.com%3A6969"],"infoHash":"f0e7292227f9beba23ccdd98fa5b623b72f3ec71","infoHashBuffer":{"type":"Buffer","data":[240,231,41,34,39,249,190,186,35,204,221,152,250,91,98,59,114,243,236,113]},"announce":[],"urlList":[]}}